<?xml version="1.0" encoding="UTF-8" standalone="no"?>
<svg xmlns="http://www.w3.org/2000/svg" width="800" height="600" >
<defs>
<!-- arrowhead marker definition -->
<marker id="arrow" viewBox="0 0 10 10" refX="0" refY="5"
markerWidth="4" markerHeight="4"
orient="auto-start-reverse">
<path d="M 0 1.5 L 10 5 L 0 8.5 z" />
</marker>
</defs>
<path d="
M 400.000000 250.000000
A 50.000000 50.000000 0 0 1 400.000000 150.000000
L 400.000000 200.000000
Z"
style="fill:grey" ></path>
<path d="
M 464.671567 173.212160
A 70.000000 70.000000 0 0 1 464.671567 226.787840
L 400.000000 200.000000
Z"
style="fill:grey" ></path>

<polygon points=" 464.671567 , 173.212160 464.671567 , 226.787840 400.000000 , 250.000000 400.000000 , 150.000000  " style="fill:grey" ></polygon>

<rect x="390.000000" y="250.000000" width="20.000000" height="200.000000" style="fill:black" ></rect>

<rect x="360.000000" y="450.000000" width="80.000000" height="20.000000" style="fill:black" ></rect>

<line x1="410.000000" y1="250.000000" x2="490.000000" y2="250.000000" style="stroke:black;stroke-width:2"  />
<line x1="410.000000" y1="450.000000" x2="490.000000" y2="450.000000" style="stroke:black;stroke-width:2"  />
<line x1="470.000000" y1="259.000000" x2="470.000000" y2="441.000000" style="stroke:black;stroke-width:2" marker-start="url(#arrow)" marker-end="url(#arrow)" />
<text x="473.000000" y="350.000000" fill="black" transform="rotate(90.000000,473.000000,350.000000)" text-anchor="middle"  >200.0</text>
<line x1="360.000000" y1="470.000000" x2="360.000000" y2="558.571429" style="stroke:black;stroke-width:2"  />
<line x1="440.000000" y1="470.000000" x2="440.000000" y2="558.571429" style="stroke:black;stroke-width:2"  />
<line x1="369.000000" y1="538.571429" x2="431.000000" y2="538.571429" style="stroke:black;stroke-width:2" marker-start="url(#arrow)" marker-end="url(#arrow)" />
<text x="400.000000" y="535.571429" fill="black" text-anchor="middle"  >80.0</text>
<line x1="400.000000" y1="200.000000" x2="400.000000" y2="90.000000" style="stroke:black;stroke-width:2"  />
<line x1="470.000000" y1="200.000000" x2="470.000000" y2="90.000000" style="stroke:black;stroke-width:2"  />
<line x1="409.000000" y1="110.000000" x2="461.000000" y2="110.000000" style="stroke:black;stroke-width:2" marker-start="url(#arrow)" marker-end="url(#arrow)" />
<text x="435.000000" y="107.000000" fill="black" text-anchor="middle"  >70.0</text>
<line x1="350.000000" y1="150.000000" x2="250.000000" y2="150.000000" style="stroke:black;stroke-width:2"  />
<line x1="350.000000" y1="250.000000" x2="250.000000" y2="250.000000" style="stroke:black;stroke-width:2"  />
<line x1="270.000000" y1="159.000000" x2="270.000000" y2="241.000000" style="stroke:black;stroke-width:2" marker-start="url(#arrow)" marker-end="url(#arrow)" />
<text x="273.000000" y="200.000000" fill="black" transform="rotate(90.000000,273.000000,200.000000)" text-anchor="middle"  >100.0</text>

</svg>
